<?xml version="1.0" standalone="no"?>
<!DOCTYPE svg PUBLIC "-//W3C//DTD SVG 20010904//EN"
 "http://www.w3.org/TR/2001/REC-SVG-20010904/DTD/svg10.dtd">
<svg version="1.0" xmlns="http://www.w3.org/2000/svg"
 width="1024.000000pt" height="1024.000000pt" viewBox="0 0 1024.000000 1024.000000"
 preserveAspectRatio="xMidYMid meet">

<g transform="translate(0.000000,1024.000000) scale(0.100000,-0.100000)"
fill="#000000" stroke="none">
<path d="M1320 6179 c-78 -42 -116 -83 -129 -136 -12 -47 -77 -612 -107 -928
-3 -33 -8 -72 -10 -87 -4 -27 -4 -28 41 -23 25 3 65 7 89 10 l43 4 8 -77 c4
-42 10 -205 14 -362 5 -185 11 -292 19 -306 6 -12 25 -34 43 -48 l31 -26 623
0 623 0 31 25 c59 51 62 142 5 196 l-26 24 -589 5 -590 5 0 185 c0 102 0 440
0 753 l1 567 598 0 597 1 29 25 c61 54 63 149 4 199 l-30 25 -631 0 -632 0
-55 -31z"/>
<path d="M8630 5894 c-74 -20 -108 -37 -170 -83 -104 -78 -155 -181 -155 -316
0 -117 23 -174 105 -255 66 -66 98 -85 290 -173 103 -47 155 -91 169 -144 13
-45 -3 -96 -39 -126 -90 -76 -241 -59 -403 45 -26 17 -49 29 -52 27 -12 -13
-95 -231 -90 -239 12 -19 139 -83 208 -105 298 -95 576 26 643 278 39 147 -3
296 -113 398 -43 41 -194 125 -283 159 -134 51 -196 151 -139 224 68 86 227
78 369 -17 l54 -36 17 47 c9 26 29 80 44 121 l28 73 -24 19 c-50 39 -141 80
-215 99 -89 23 -166 24 -244 4z"/>
<path d="M1510 5877 c-3 -3 -5 -311 -4 -684 l0 -678 135 0 134 0 2 125 c1 69
2 181 3 250 l0 126 47 -1 c55 -1 38 23 208 -290 60 -110 114 -203 120 -207 11
-9 305 -11 305 -3 0 7 -171 311 -240 425 -90 149 -86 134 -37 163 111 65 177
180 185 319 11 202 -95 362 -283 429 -54 19 -87 22 -315 26 -140 3 -257 3
-260 0z m472 -268 c67 -34 101 -91 101 -169 0 -68 -22 -118 -68 -149 -30 -20
-51 -25 -135 -29 l-100 -5 0 188 0 188 89 -6 c50 -3 100 -11 113 -18z"/>
<path d="M2505 5871 c-3 -2 -5 -222 -5 -488 0 -549 3 -578 69 -680 101 -156
238 -221 445 -210 99 5 117 9 180 41 80 39 138 89 184 157 77 114 82 159 82
716 l0 462 -42 5 c-24 3 -86 5 -138 3 l-95 -2 -5 -500 c-6 -559 -3 -540 -78
-590 -105 -69 -235 -43 -297 59 l-30 49 -3 494 -3 493 -130 -2 c-71 -1 -132
-4 -134 -7z"/>
<path d="M3654 5869 c-3 -6 -7 -310 -7 -675 -1 -575 1 -666 13 -674 8 -6 67
-10 130 -10 l115 0 -2 447 c-2 245 0 443 4 439 4 -4 107 -204 228 -444 l220
-437 130 0 130 0 0 680 0 680 -130 0 -130 0 0 -437 c0 -240 -2 -434 -6 -430
-3 4 -25 50 -49 102 -24 52 -117 244 -207 425 -188 378 -154 342 -329 344 -63
0 -106 -4 -110 -10z"/>
<path d="M4817 5873 c-8 -12 -8 -1254 -1 -1315 l6 -47 129 0 130 0 -3 445 c-2
244 -1 444 2 443 3 -1 104 -200 226 -443 l221 -441 131 -3 132 -3 0 681 0 680
-22 5 c-13 3 -70 5 -128 3 l-105 -3 -5 -437 -5 -437 -204 417 c-112 229 -209
426 -216 438 -13 19 -23 21 -148 23 -74 1 -138 -2 -140 -6z"/>
<path d="M5986 5872 c-6 -10 -5 -1290 1 -1329 l6 -32 366 2 366 2 0 130 0 130
-237 3 -236 2 0 155 c1 150 1 155 22 157 12 1 98 2 191 2 l170 1 0 120 0 120
-190 5 -190 5 0 135 0 135 233 3 232 2 0 129 0 129 -365 1 c-200 0 -366 -3
-369 -7z"/>
<path d="M6779 5870 c-4 -18 -2 -28 125 -610 24 -113 59 -272 77 -355 18 -82
44 -204 58 -270 l27 -120 132 -3 c130 -3 132 -2 141 20 4 13 43 201 85 418 43
217 80 402 83 410 4 10 157 -701 183 -847 0 -2 59 -3 130 -3 151 0 138 -9 164
120 9 41 34 158 56 260 23 102 54 246 70 320 16 74 40 185 54 245 32 146 73
341 80 386 l6 35 -125 2 c-114 2 -125 0 -135 -17 -9 -18 -107 -553 -148 -808
-9 -57 -19 -103 -23 -103 -3 0 -18 62 -33 138 -14 75 -47 241 -72 367 -24 127
-51 270 -59 319 -8 49 -18 93 -23 98 -5 5 -60 7 -123 6 l-114 -3 -27 -135
c-15 -74 -51 -259 -79 -410 -28 -151 -56 -302 -62 -335 l-11 -60 -13 65 c-25
129 -77 420 -123 685 -17 99 -33 182 -35 184 -6 6 -265 7 -266 1z"/>
</g>
</svg>
